<svg xmlns="http://www.w3.org/2000/svg" viewBox="0 0 223.52 217.28"><defs><style>.cls-1{fill:#71278c;}.cls-2{fill:#fff;}.cls-3{fill:#fa0058;}.cls-4{fill:#ffb600;}.cls-5{fill:#00aea4;}.cls-6{fill:#00b0f1;}</style></defs><g id="Layer_2" data-name="Layer 2"><g id="Layer_1-2" data-name="Layer 1"><path class="cls-1" d="M44.13,81.2a54.78,54.78,0,0,0,27.6,8.1h0C76.83,93,96,107.7,96,107.7s-6.1,20.9-8.8,29.1a54.4,54.4,0,0,1-20.6,27c-6.1,4-15.7,5.1-23.1,5.1-4,0-9.4-1.8-13.6-3.2-.4-.1-.7-.2-1-.3-12.8-4.2-21.2-14.7-25.6-26.3-3.3-8.8-4.7-18.9-1.6-28.5A42.71,42.71,0,0,1,44.13,81.2Z"/><path class="cls-2" d="M38.43,92h-.2a.9.9,0,0,0-.5.1c-.1,0-.2.1-.3.1h-.1c-.2.1-.3.2-.5.3a6.47,6.47,0,0,0-.9.8c-.1.2-.3.3-.4.5h0c-.1.1-.1.2-.1.4a.6.6,0,0,1-.1.4,2.4,2.4,0,0,0,0,1.2,4.33,4.33,0,0,0,.1.5c0,.1.1.2.2.3s.1.2.2.3h0l.3.3h0l.1.1h0l.3.3a2.38,2.38,0,0,0,1.1.6,1.27,1.27,0,0,0,.6.1h.7a1.27,1.27,0,0,0,.6-.1A.76.76,0,0,0,40,98c.1-.1.3-.1.4-.2a1.38,1.38,0,0,0,.4-.3h0l.3-.3.2-.2h0c.1-.1.1-.2.2-.3h0a.52.52,0,0,0,.2-.4c.1-.2.1-.4.2-.5a1.67,1.67,0,0,0-.1-1.2c-.1-.2-.2-.3-.3-.5s-.1-.1-.1-.2h0c0-.1-.1-.1-.1-.2s-.2-.3-.3-.4l-.1-.1h0l-.2-.2c-.1-.1-.3-.2-.4-.3s-.3-.3-.5-.3a1.42,1.42,0,0,0-.6-.2c-.2,0-.4-.1-.6-.1C38.63,92,38.53,92,38.43,92ZM46,95.4h.7a1.27,1.27,0,0,1,.6.1c.1,0,.2.1.3.1s.2.1.2.2a.85.85,0,0,1,.3.5v.3l.3.3a.76.76,0,0,1,.2.5v.5c0,.2-.1.3-.2.5a1.38,1.38,0,0,1-.3.4c-.1.1-.3.2-.4.3s-.3.2-.5.2a1.7,1.7,0,0,1-.7.1,1.27,1.27,0,0,1-.6-.1.37.37,0,0,1-.3-.1c-.1,0-.2-.1-.3-.1h0c-.1,0-.2-.1-.3-.1s-.2-.1-.3-.2-.2-.3-.3-.4-.2-.3-.2-.5v-.7a1.08,1.08,0,0,1,.3-.7,3.45,3.45,0,0,1,.9-.8C45.63,95.5,45.83,95.5,46,95.4Zm-3.5,5.4h0a2,2,0,0,0-.7.1,2.19,2.19,0,0,0-.5.3c-.2.1-.3.2-.3.4a1.27,1.27,0,0,0-.1.6,1.45,1.45,0,0,0,.2.7.35.35,0,0,0,.1.2c.1.1.2.3.4.4s.3.1.4.2h.1c.1,0,.2.1.3.1h.5a.9.9,0,0,0,.5-.1h0c.1,0,.2-.1.3-.2l.2-.2a.76.76,0,0,0,.2-.4v-.8c0-.3-.2-.5-.5-.7h-.1l-.2-.2A.91.91,0,0,0,42.53,100.8Zm-7.3,3.6h5.3a2.77,2.77,0,0,1,.9.1h8.8a2.77,2.77,0,0,1,.9.1.76.76,0,0,1,.4.2h.1c.2,0,.3.1.4.3a1.38,1.38,0,0,1,.3.4,1.42,1.42,0,0,1,.2.6,1.27,1.27,0,0,1-.1.6l-.3.6-.2.2a.37.37,0,0,1-.3.1c-.1,0-.2.1-.3.1a4.87,4.87,0,0,1-1.2.1H41a4.48,4.48,0,0,1-1.2-.1h-.3c-.3,0-.6-.1-.8-.1h-4a1.27,1.27,0,0,1-.6-.1c-.1-.1-.3-.1-.4-.2a2.19,2.19,0,0,1-.3-.5h0c0-.2-.1-.4-.1-.6,0-.5-.1-.9.2-1.3.1-.1.2-.3.4-.4s.4-.1.6-.2h.6c-.3.1-.1.1.1.1Zm-3.8,28-.3.3h0a5.3,5.3,0,0,0-.6,1,2.09,2.09,0,0,1-.4.6h0c-.1.1-.2.3-.3.4s-.2.3-.3.5h0c-.1.2-.2.3-.3.5l-.6.9h0c-.2.4-.5.7-.7,1.1l-.3.6h0c-.1.2-.2.3-.2.5s-.3.5-.4.7l-.2.3-.1.2h0c-.2.3-.3.6-.5.9l-.1.2a3,3,0,0,1-.4.8,8.33,8.33,0,0,0-.4,1.5v1.2c0,.2.1.3.1.5s.1.1.1.2l.1.1c.1.1.2.1.3.2a1.88,1.88,0,0,0,.8.2,1.7,1.7,0,0,1,.7.1h29.5a16.2,16.2,0,0,0,2.2-.1,10.26,10.26,0,0,0,1.4-.4c.1-.1.3-.1.4-.2l.1-.1V145c0-.1.1-.2.1-.4v-.3c0-.2-.1-.3-.1-.4l-.3-.6-.3-.6c0-.1-.1-.2-.1-.3h0c0-.1-.1-.1-.1-.2l-.1-.2h0c0-.1-.1-.2-.1-.3l-.2-.3a2.51,2.51,0,0,0-.4-.7l-.1-.2a4.05,4.05,0,0,0-.5-.9,6.07,6.07,0,0,0-.7-1h0a2.19,2.19,0,0,1-.3-.5c-.1-.1-.1-.2-.2-.3l-.1-.2-.2-.3h0c-.1-.2-.3-.5-.4-.7l-.2-.2-.2-.2h0c-.1-.2-.2-.3-.3-.5a1.69,1.69,0,0,1-.2-.5h-.1c-.1,0-.2-.1-.4-.1h-.8a2.2,2.2,0,0,0-.8.1.6.6,0,0,0-.4.1h0c-.3,0-.6.1-.9.1h-.1c-.4,0-.7.1-1.1.1h-4.7c-.2,0-.4-.1-.7-.1a.37.37,0,0,1-.3-.1h-.3a3.81,3.81,0,0,1-1-.3h-.1c-.2-.1-.3-.1-.5-.2s-.3-.2-.5-.3l.1.1a1.38,1.38,0,0,0-.4-.3c-.1-.1-.2-.1-.3-.2h-.1a5.9,5.9,0,0,0-.8-.4h0c-.1,0-.2-.1-.3-.1s0,.1-.1.2,0,.1-.1.2-.1.3-.2.5a2.18,2.18,0,0,1-.5.8c-.1.1-.2.2-.2.3h0l-.1.1a.35.35,0,0,0-.1.2h0l-.2.2c-.1.1-.3.3-.4.3a1.07,1.07,0,0,1-.6.2,1.27,1.27,0,0,1-.6.1h-1.3c-.1,0-.2,0-.2-.1s-.2-.1-.3-.1a2.76,2.76,0,0,1-.9-.7h0l-.2-.2-.1-.1h0l-.2-.2a.76.76,0,0,1-.2-.4,1.42,1.42,0,0,1-.2-.6c0-.2-.1-.4,0-.5a.37.37,0,0,1,.1-.3l.3-.6c.1-.1.1-.2.2-.3v-.1h0a.9.9,0,0,0-.5-.1h-1c-.3,0-.6.1-.9.1h-.1c-.2,0-.4.1-.6.1s-.3.1-.6.2C31.63,132.3,31.53,132.3,31.43,132.4Zm17.1-23.6h.3a1.7,1.7,0,0,1,.7.1c.1,0,.2.1.4.1a1.21,1.21,0,0,1,.5.5,1.09,1.09,0,0,1,.1.5h0v2.3h0v3h0v.9h0v.9c0,.4.1.8.1,1.1a2.92,2.92,0,0,0,.2.9,9.44,9.44,0,0,1,.3.9l.3.9c.1.2.2.5.3.7s.1.2.1.3.1.2.2.3h0c.1.2.3.4.4.6s.2.3.3.4.2.3.3.5.2.3.3.5v.1c.1.1.2.2.2.3h0l.1.2c.1.1.2.3.3.4h0l.1.1a4.35,4.35,0,0,1,.4.7h0c.1.1.1.2.2.4a2.19,2.19,0,0,0,.3.5c.1.1.1.2.2.3h0l.2.2a2.18,2.18,0,0,0,.4.5.76.76,0,0,1,.2.4h0l.1.1c.1.2.3.5.4.7h0c.1.1.1.2.2.3a4.35,4.35,0,0,1,.4.7h0c.1.1.1.2.2.4a6.73,6.73,0,0,0,.7,1.1c.2.2.3.5.5.7h0l.2.3c.2.3.3.5.5.8l.2.3c.1.1.1.2.2.3h0a4.35,4.35,0,0,1,.4.7,5.74,5.74,0,0,0,.4.7l.3.5.3.6h0c.1.2.2.3.3.5s.3.5.4.8l.2.3a2.09,2.09,0,0,0,.4.6c.1.2.2.3.3.5l.1.1a.76.76,0,0,1,.2.5,2.19,2.19,0,0,0,.3.5l.1.2h0a3,3,0,0,0,.4.8v.1h0c.1.1.1.2.2.3s.1.3.2.5.1.4.2.6v.1c0,.2.1.3.1.5a.9.9,0,0,0,.1.5v.8a1.7,1.7,0,0,1-.1.7h0a4.33,4.33,0,0,1-.1.5c-.1.4-.3.8-.4,1.1a7,7,0,0,1-.6.9.1.1,0,0,1-.1.1l-.3.3-.3.3a5.58,5.58,0,0,1-.8.5l-.9.3c-.2,0-.3.1-.6.1a1.42,1.42,0,0,1-.6.2,1.27,1.27,0,0,1-.6.1c-.4,0-.7.1-1.1.1h-3.6a12.75,12.75,0,0,1-2-.1H39.53a4.87,4.87,0,0,0-1.2.1H26.43a5,5,0,0,1-1.2-.2,9.74,9.74,0,0,1-1.1-.5c-.3-.3-.6-.5-.9-.8-.1-.1-.2-.3-.4-.5s-.2-.3-.3-.4a1.69,1.69,0,0,1-.2-.5h0v-.2h0c0-.1-.1-.3-.1-.4l-.3-1.2a4.87,4.87,0,0,1-.1-1.2,2.66,2.66,0,0,1,.3-1.2l.3-.6a.76.76,0,0,0,.2-.4l.1-.1c.1-.2.2-.3.3-.5l.1-.1h0c.1-.1.1-.3.2-.4l.1-.1h0c.1-.1.1-.2.2-.3s.1-.2.2-.3h0c0-.1.1-.1.1-.2l.1-.2a4.05,4.05,0,0,0,.5-.9,10.91,10.91,0,0,0,.6-1.1c.1-.1.1-.2.2-.3h0l.1-.1a2.09,2.09,0,0,1,.4-.6c.1-.1.2-.3.3-.4h0l.3-.6v-.1h0c.1-.1.2-.3.3-.4s.2-.3.3-.5l.3-.6.3-.6a.76.76,0,0,0,.2-.4l.1-.1c.1-.1.1-.2.2-.3h0c0-.1.1-.1.1-.2a4.05,4.05,0,0,0,.5-.9h0l.1-.2c.1-.2.2-.3.3-.5h0a2.19,2.19,0,0,1,.3-.5c.1-.1.2-.3.3-.4h0v-.1a2.09,2.09,0,0,1,.4-.6l.1-.2.2-.3v-.1c.1-.1.2-.3.3-.4l.2-.3h0a5.55,5.55,0,0,0,.6-.8c.1-.2.2-.3.3-.5l.1-.1a.76.76,0,0,0,.2-.4l.3-.6a.76.76,0,0,0,.2-.4c.1-.2.2-.3.3-.5h0c.1-.2.2-.3.3-.5l.1-.1c.1-.3.3-.5.4-.8s.1-.3.2-.5h0l.1-.2c.1-.1.1-.2.2-.4h0c0-.1.1-.1.1-.2s.1-.5.2-.7V118h0v-6.2a1.27,1.27,0,0,1,.1-.6v-.1h0a.37.37,0,0,1,.1-.3v-.2h0v-.3c0-.1.1-.2.1-.3s.2-.2.3-.2h0c.1,0,.1-.1.2-.1s.3-.1.4-.1c.3,0,.7-.1,1.1-.1h11.4l.3-.7Zm-2.2,27.5h.3c.2,0,.4.1.7.1s.4.1.6.2.3.1.4.2l.3.3a3.39,3.39,0,0,1,.3.8,1.27,1.27,0,0,1-.1.6h0c0,.1.1.1.1.2s.1.2.1.4v.5a1,1,0,0,1-.1.3c-.1.1-.1.2-.2.3a1.76,1.76,0,0,1-.5.4,1.42,1.42,0,0,1-.6.2c-.2,0-.4.1-.6.1h-.3a4.33,4.33,0,0,1-.5-.1c-.1-.1-.2-.1-.4-.2s-.2-.1-.3-.2h0l-.3-.3a1.61,1.61,0,0,1-.4-.7c0-.1-.1-.2-.1-.3h0a1.27,1.27,0,0,1-.1-.6v-.3a.6.6,0,0,1,.1-.4c0-.1.1-.2.1-.4a1.84,1.84,0,0,1,1-1c0-.1.2-.1.5-.1Zm-3.7,5.5a.9.9,0,0,0-.5.1c-.1,0-.1,0-.2.1a.22.22,0,0,0-.2.2l-.2.2a1.61,1.61,0,0,0-.4.7c0,.2-.1.4-.1.6a2.35,2.35,0,0,0,.2.8c.1.1.1.2.2.2s.1.1.2.1.1.1.2.1.2.1.4.2h.2c.2,0,.5.1.7.1h.5a1.42,1.42,0,0,0,.6-.2c.1-.1.2-.1.3-.2a.37.37,0,0,0,.1-.3v-.3h0v-.4a.86.86,0,0,0-.3-.6V143c0-.1,0-.2-.1-.2s-.1-.2-.2-.3-.2-.2-.3-.2a.37.37,0,0,0-.3-.1,1.27,1.27,0,0,0-.6-.1C42.83,141.8,42.73,141.8,42.63,141.8Zm-7.7.7h0a1.08,1.08,0,0,1,.6.1,1,1,0,0,1,.5.4.6.6,0,0,1,.1.4l.2.2h0c.1.1.2.2.2.3s0,.2-.1.2h0v.2c0,.1-.1.3-.2.3s-.2.2-.3.2-.1.1-.2.1a1.27,1.27,0,0,1-.6.1H35a.75.75,0,0,1-.5-.1c-.4-.1-.8-.4-.8-.8a1.48,1.48,0,0,1,.4-1.3C34.23,142.6,34.53,142.5,34.93,142.5Z"/><path class="cls-3" d="M102.13,88.7s-21.7.6-30.4.6a54.11,54.11,0,0,1-31.9-11.2c-5.7-4.5-9.7-13.3-12-20.4-1.2-3.7-1.2-9.4-1.2-13.8V42.8c0-13.5,7.4-24.6,17.1-32.5C51,4.4,60.33,0,70.33,0a42.42,42.42,0,0,1,40.9,31.1A53.56,53.56,0,0,0,112,60v.2C110.13,66.2,102.13,88.7,102.13,88.7Z"/><path class="cls-2" d="M63.93,24.7c-.5,0-1,.1-1.5.1h0c-.4,0-.8.1-1.2.1h-1a.9.9,0,0,0-.5.1h-.1a1.27,1.27,0,0,0-.6.1,6.15,6.15,0,0,0-1.1.3,10.37,10.37,0,0,0-1,.4c-.3.2-.6.3-.9.5h0l-.1.1h-.1c-.1.1-.3.2-.4.3l-.3.3a2.09,2.09,0,0,0-.4.6c0,.1-.1.4-.1.6a11,11,0,0,0-.2,1.8v2.2h0v1.9h0v.8c0,.6.1,1.2.1,1.8h0a6.6,6.6,0,0,0,.1,1.4v.7h0v1.5h0a1.27,1.27,0,0,0,.1.6c0,.4.1.8.1,1.1v.5h0V43c0,.3.1.6.1.9a.1.1,0,0,0,.1.1l.1.1c.1,0,.1.1.2.1s.2.1.4.1.4.1.6.1h.6l1.1.1,3.8.3c.6.1,1.2.1,1.7.2.2,0,.5.1.7.1s.5.1.7.1h.5a.9.9,0,0,1,.5.1h0c.2,0,.4.1.6.1a12.1,12.1,0,0,0,1.9.1H69c.7,0,1.6.1,2.4.1H74c.8,0,1.6.1,2.3.1h6a7.84,7.84,0,0,0,1.4-.2c.3,0,.5-.1.8-.1a1.42,1.42,0,0,0,.6-.2h0a2,2,0,0,0,.8-.4c.1-.1.2-.1.2-.2s.1-.2.2-.3.1-.4.2-.6h0c0-.1.1-.3.1-.4V41.1h0V38.6h0V38a3.4,3.4,0,0,0-.1-1c0-.3-.1-.7-.1-1a6.6,6.6,0,0,1-.1-1.4V32.1c0-.3-.1-.6-.1-.8h0V31a.75.75,0,0,0-.1-.5v-.2a.75.75,0,0,0-.1-.5c0-.2-.1-.4-.1-.6h0c0-.2-.1-.4-.1-.6v-.2h0a2.92,2.92,0,0,0-.2-.9v-.1a.35.35,0,0,0-.1-.2c0-.1-.1-.1-.1-.2a.1.1,0,0,0-.1-.1c-.1-.3-.2-.5-.3-.8a.1.1,0,0,1,.1.1.1.1,0,0,1-.1-.1c-.1,0-.2-.1-.3-.1s-.2-.1-.4-.1-.5-.1-.7-.1c-.8-.1-1.7-.1-2.5-.2h-2.6a2,2,0,0,1-.8-.1h-.4c-.4,0-.8-.1-1.2-.1l-.5-.4c-.6,0-1.2-.1-1.8-.1-.8,0-1.6-.1-2.5-.1h-1.2a4.87,4.87,0,0,1-1.2-.1c-.8,0-1.7-.1-2.5-.1h-1.8c-.2,0-.4.1-.7.1Zm3.4-3.7H73c.9,0,1.8.1,2.6.1h.2c1.9.1,3.8.3,5.7.4h.8c.2,0,.5.1.7.1h0c.2,0,.4.1.6.1h0c.2,0,.5.1.7.1h.2c.4.1.8.1,1.2.2s.5.1.8.1a.37.37,0,0,1,.3.1c.1,0,.2,0,.2.1a.37.37,0,0,1,.3.1h0c.2,0,.5.1.7.1s.7.2,1,.3h0c.2.1.3.1.5.2a.35.35,0,0,1,.2.1.78.78,0,0,1,.4.4c.1.1.1.3.2.5v.2a.37.37,0,0,0,.1.3h0a2.84,2.84,0,0,1,.4,1.2v1h0v.9h0v1.6a1.7,1.7,0,0,0,.1.7v.3h0a.76.76,0,0,0,.1.4c0,.3.1.5.1.8V32c.1.9.2,1.8.3,2.8,0,.5.1.9.1,1.4,0,.3.1.5.1.8h0a1.27,1.27,0,0,0,.1.6V38h0v.3h0a1.7,1.7,0,0,0,.1.7c0,.5.1.9.1,1.4h0v3.4h0v.1h0v3.3a1.7,1.7,0,0,1-.1.7c0,.1-.1.3-.1.4a.37.37,0,0,1-.1.3,1.77,1.77,0,0,1-.5.8,2.66,2.66,0,0,1-1,.6h0l-.1.1a3.26,3.26,0,0,1-1.3.4l-.3.1c.2.3-.1.4-.5.4a23.58,23.58,0,0,1-2.8.4,7.57,7.57,0,0,1-1.5.1h-4.8a19.29,19.29,0,0,1-2.5-.1h-5.6c-.9,0-1.8-.1-3-.1a2.2,2.2,0,0,1-.8-.1h-.5a6.6,6.6,0,0,1-1.4-.1c-.8,0-1.7-.1-2.9-.1h-.3a4.1,4.1,0,0,1-1.1-.1h-4.3a3.75,3.75,0,0,0-1,.1h-1.5a1.7,1.7,0,0,0-.7.1h-2.8a1.27,1.27,0,0,1-.6-.1h0a.6.6,0,0,1-.4-.1h-.3a1,1,0,0,1-.5-.4h0c-.1-.1-.1-.2-.2-.3s-.1-.2-.1-.3a1.27,1.27,0,0,1-.1-.6v-.1c0-.2-.1-.4-.1-.7v-.1h0c0-.2-.1-.4-.1-.6a7.08,7.08,0,0,1-.1-1.4v-2h0V42.5h0v-.6a23.48,23.48,0,0,0-.1-2.6v-.1h0c0-.4-.1-.8-.1-1.3V36.5a24.52,24.52,0,0,1,.2-2.7h0v-.5c.1-.8.1-1.6.2-2.4a.6.6,0,0,1,.1-.4v-.2c0-.3.1-.5.1-.8a1.7,1.7,0,0,1,.1-.7h0V25.2a5.65,5.65,0,0,1,0-1.3,5,5,0,0,1,.3-1.3c.1-.2.1-.4.3-.6s.2-.1.3-.2.1-.1.2-.1h0c.2-.1.4-.1.6-.2h.2c.2,0,.3-.1.5-.1s.4-.1.6-.1c.5-.1.9-.1,1.4-.2a2.77,2.77,0,0,0,.9-.1h8.7a5.7,5.7,0,0,0,1.3-.1h3.2A.6.6,0,0,0,67.33,21Zm21.9,31.2h.4a5.64,5.64,0,0,1,1.2.4c-.1,0-.1.1-.2.1l.3.3c.2.3.4.5.6.8h0a1.38,1.38,0,0,1,.3.4l.1.1h0a7.63,7.63,0,0,1,.8,1.1c.1.1.1.2.2.3h0v.1a.35.35,0,0,0,.1.2l.1.1h0c.1.1.2.3.3.4a2.09,2.09,0,0,0,.4.6h0a2.51,2.51,0,0,0,.4.7l.1.1h0A10.54,10.54,0,0,1,95,59c.1.1.1.2.2.4h0a.35.35,0,0,0,.1.2l.1.1c0,.1.1.1.1.2a.37.37,0,0,1,.1.3,2.51,2.51,0,0,0,.4.7c.1.1.1.2.2.3v.1h0c0,.1.1.1.1.2a.76.76,0,0,1,.1.4c0,.2.1.4.1.6a1.09,1.09,0,0,1-.1.5c-.1.2-.1.4-.2.5s-.1.2-.2.3-.1.2-.2.3a2.65,2.65,0,0,1-.6.5,1.88,1.88,0,0,1-.8.2H94a.6.6,0,0,0-.4.1c-.9.1-2,.2-3.1.3h.1a4.1,4.1,0,0,0-1.1.1H80c-.5,0-.9-.1-1.4-.1h-.4c-.6,0-1.2-.1-1.8-.1C75.13,65,74,65,73,65H58.33c-.5,0-1,.1-1.5.1h0a2.77,2.77,0,0,0-.9.1c-.5,0-1,.1-1.5.1-.3,0-.6.1-.9.1a1.7,1.7,0,0,0-.7.1h-.1c-.3,0-.6.1-.9.1h-.3c-.5,0-.9.1-1.4.1H44a.9.9,0,0,1-.5-.1c-.1,0-.2-.1-.3-.1h0a.35.35,0,0,1-.2-.1l-.3-.3c0-.1-.1-.1-.1-.2s-.1-.2-.1-.3h0c-.1-.1-.1-.3-.2-.4V64h0c.4,0,.3-.2.3-.3v-.9c0-.3.1-.5.1-.8s.1-.6.2-.9V61h0a.35.35,0,0,1,.1-.2l.1-.2c0-.1.1-.1.1-.2a3,3,0,0,1,.4-.8,2.51,2.51,0,0,1,.4-.7,12.49,12.49,0,0,1,.9-1.2A12,12,0,0,1,46,56.5l.6-.6h0l.2-.2h0l.3-.3c.3-.2.6-.5.9-.7h0a1.38,1.38,0,0,1,.4-.3c.1-.1.2-.1.3-.2h0l.3-.3c.2-.1.4-.3.7-.5a5.74,5.74,0,0,1,.7-.4c.3-.1.5-.2.8-.3a5.07,5.07,0,0,1,1.3-.2h.8a4.1,4.1,0,0,1,1.1.1h28.4a9.15,9.15,0,0,0,1.6-.1h1.8a1.27,1.27,0,0,0,.6-.1h.5c.4,0,.8-.1,1.1-.1a2.2,2.2,0,0,1,.8-.1Z"/><path class="cls-4" d="M122,88.7s-7.3-20.5-10-28.7a54.12,54.12,0,0,1,.8-33.8c2.6-6.8,9.7-13.4,15.7-17.7,3.2-2.3,8.7-4.1,12.9-5.4.4-.1.7-.2,1-.3,12.8-4.2,25.7-.6,36.2,6.2,7.8,5.1,14.9,12.6,18,22.1a42.73,42.73,0,0,1-17.1,48.7c-9.2.7-19.4,4.1-26.9,9.6h-.1C146.13,89.3,122,88.7,122,88.7Z"/><path class="cls-2" d="M171.83,30.6h-1.4a.35.35,0,0,1-.2-.1h0a.1.1,0,0,1-.1-.1h0l-.6-.3-.3-.3-.2-.2h0c0-.1-.1-.1-.1-.2s-.1-.1-.1-.2-.1-.1-.1-.2h0c-.1-.2-.1-.4-.2-.6a1.09,1.09,0,0,1-.1-.5v-.5h0v-.1h0v-.6c0-.2.1-.3.1-.5s.1-.3.2-.5a2.19,2.19,0,0,1,.3-.5c.1-.2.3-.3.5-.5s.3-.2.4-.3.1-.1.2-.1h0a6.37,6.37,0,0,1,.7-.2h2.4V24h.1a.35.35,0,0,1,.2.1c.1,0,.1.1.2.1l.1.1c.1,0,.1.1.2.1h0c.1.1.2.1.3.2l.1.1c.1.1.1.2.2.3s.1.2.2.3v.1h0v.1c0,.1,0,.1.1.2v.1h0V26h0c0,.1.1.2.1.3v1a4.33,4.33,0,0,1-.1.5c0,.2-.1.3-.2.5s-.2.3-.3.5l-.1.1c0,.1-.1.1-.1.2s-.1.2-.2.3-.2.2-.2.3l-.3.3a3.33,3.33,0,0,1-.6.3l-.9.3Zm1.9-14.6h-.9a.6.6,0,0,0-.4.1h-.5a.76.76,0,0,0-.4.1h-.1c-.2,0-.3.1-.5.1h0c-.2,0-.3.1-.5.1s-.3.1-.5.1-.1,0-.2.1-.2.1-.3.1a.37.37,0,0,0-.1.3v.9h0c0,.1,0,.1.1.2s.1.5.2.8v.3h-.1c-.1,0-.2.1-.3.1h-.1c-.1,0-.2.1-.3.1s-.2.1-.3.2l-.3.3-.1.1v-.1h0v-.3l-.1-.1h0c-.1-.1-.2-.2-.3-.2h0l-.1-.1-.3-.3-.1-.1v-.1l-.1-.1h0l-.1-.1c0-.1-.1-.1-.1-.2h0a1,1,0,0,0-.4-.5h0c-.1-.1-.2-.2-.3-.2h-.1c-.1,0-.2.1-.3.1l-.3.3h0l-.1.1a2.18,2.18,0,0,1-.5.4h-.1a2.18,2.18,0,0,0-.5.4c-.1.1-.1.1-.2.1h0c-.2.1-.3.3-.5.4l-.4.4h0l-.2.2a1.38,1.38,0,0,0-.3.4.9.9,0,0,0-.1.5.1.1,0,0,0,.1.1c0,.1.1.2.1.3s.1.2.2.3a.1.1,0,0,0,.1.1c0,.1.1.1.2.1h0l.2.2c.1.1.2.2.2.3h0c0,.1.1.1.1.2s.2.2.2.3h0c.1.1.2.3.3.4h0l.1.1h0a.76.76,0,0,0-.2.4,1.42,1.42,0,0,0-.2.6v.2h-2.1a.45.45,0,0,0-.3.3V25h0v.1h0v.5h0v1.5h0V28h0v.6h0a.37.37,0,0,0,.1.3.78.78,0,0,0,.4.4c.1,0,.2.1.3.1s.3.1.5.1a1.27,1.27,0,0,0,.6.1h.7c0,.1.1.2.1.3h0V30h0v.3c0,.1.1.2.1.3s.1.1.1.2h0a.1.1,0,0,0-.1.1l-.3.3a2.09,2.09,0,0,0-.4.6h0l-.2.2a1.76,1.76,0,0,1-.4.5.52.52,0,0,0-.2.4.37.37,0,0,0,.1.3c0,.1.1.1.2.2h.1l.1.1v.1c.1.1.1.2.2.2l.3.3.2.2h0l.1.1.1.1h0c0,.1.1.1.1.2s.2.2.3.2l.1.1.1.1h0l.2.2.1.1h0c.1.1.2.2.3.2l.1.1c.1,0,.1.1.2.1s.1.1.2.1a.35.35,0,0,1,.2.1h.2c.1,0,.2-.1.3-.1l.1-.1h0c.1,0,.1-.1.2-.1h0l.1-.1c.1-.1.3-.2.4-.4l.1-.1h0l.1-.1.2-.2h0v-.1l.3-.3.2-.2c.1-.1.2-.2.2-.3l.1.1c.1,0,.1.1.2.1l.2.2h0c.1.1.2.2.3.2h0c.1.1.2.1.3.2v2.6h0a.6.6,0,0,0,.1.4c0,.1.1.1.2.2a.37.37,0,0,0,.3.1h1.9a.6.6,0,0,0,.4-.1h1.6a.37.37,0,0,0,.3-.1,1.38,1.38,0,0,0,.3-.4h0V37h0V35.8a.9.9,0,0,0-.1-.5v-.4h1.2l.1.1.1.1c.1.1.1.2.2.2s.1.1.2.2h0l.2.2c.1.1.2.1.3.2h0c.1,0,.1.1.2.1h0l.2.2a.37.37,0,0,0,.3.1h.1c.1,0,.1,0,.2-.1h0a.1.1,0,0,0,.1-.1h0l.1-.1h0l.1-.1h0c.1,0,.1-.1.2-.1h0a1.38,1.38,0,0,1,.4-.3l.3-.3.2-.2.1-.1.2-.2h0l.4-.4h0c.1-.1.2-.3.3-.4l.1-.1h0l.1-.1h0a.86.86,0,0,0,.3-.6v-.2a.35.35,0,0,0-.1-.2h0l-.1-.1h0l-.2-.2-.2-.2h0l-.3-.3a.35.35,0,0,0-.2-.1.1.1,0,0,1-.1-.1l-.1-.1h0c-.1-.1-.2-.1-.2-.2h0a.1.1,0,0,1,.1-.1h0a.1.1,0,0,1,.1-.1l.3-.6a1.27,1.27,0,0,0,.1-.6v-.3a.35.35,0,0,0,.2-.1c.1-.1.2-.1.3-.2s.3-.1.5-.2h0a1.27,1.27,0,0,1,.6-.1h.6a.45.45,0,0,0,.4-.3c.1-.1.1-.2.1-.4v-1h0v-.1a.9.9,0,0,0-.1-.5h0V25.4h0v-.1h0V25h0c0-.2,0-.4-.2-.5s-.2-.1-.4-.1h-1.3a.37.37,0,0,0-.3.1H180v-.2h0v-.1a.37.37,0,0,0-.1-.3c0-.1-.1-.2-.1-.3s-.1-.2-.1-.3a.1.1,0,0,0-.1-.1h0v-.1h0a.35.35,0,0,0-.1-.2l.2-.2h0a1.38,1.38,0,0,0,.3-.4l.3-.3h0a1.38,1.38,0,0,0,.3-.4l.6-.9c0-.1.1-.1.1-.2h0l.2-.2a.88.88,0,0,0,.1-.7c-.1-.1-.2-.3-.3-.4s-.3-.2-.5-.3-.2-.1-.3-.2l-.1-.1c-.1-.1-.3-.2-.4-.3l-.1-.1h0l-.1-.1c-.1-.1-.2-.1-.3-.2h0c-.1,0-.1-.1-.2-.1l-.1-.1-.2-.2-.1-.1a.35.35,0,0,0-.2-.1h-.2a.22.22,0,0,0-.2.2l-.1.1h0c-.1.1-.1.2-.2.2h0c0,.1-.1.1-.1.2s-.1.2-.2.2l-.1.1-.3.3-.2.1H177l-.1.1h-.1l-.1-.1a.1.1,0,0,1-.1-.1,1.69,1.69,0,0,0-.5-.2H176a4.33,4.33,0,0,1-.5.1h0a.37.37,0,0,1,.1-.3h0a4.33,4.33,0,0,1,.1-.5,1.7,1.7,0,0,0-.1-.7h0c0-.1,0-.2-.1-.2s-.1-.3-.1-.4v-.1c0-.2-.1-.4-.3-.4Zm-3.4,30.8h1.4c.2,0,.3.1.5.1s.3.1.4.1.2.1.3.1h.1l.3.1a3,3,0,0,1,.8.4h0c.1.1.3.1.4.2s.1.1.2.1h.1a.1.1,0,0,1,.1.1c.2.1.5.3.7.4a6,6,0,0,1,.8.8,5.42,5.42,0,0,1,.6,1.1.1.1,0,0,0,.1.1v.1h0c.1.1.1.2.2.4v.2c.1.1.1.3.2.4h0c0,.1.1.2.1.4s.1.3.1.4a2,2,0,0,0,.1.7v.9h0a2.92,2.92,0,0,1-.2.9l-.3.9c-.1.1-.1.2-.2.4s-.1.2-.2.3c-.2.3-.5.5-.7.8h0l-.2.2c-.1.2-.3.3-.5.5s-.3.3-.5.5l-.1.1c-.2.2-.5.3-.7.5a2.19,2.19,0,0,1-.5.3c-.2.1-.3.1-.5.2h0c-.1,0-.2.1-.3.1a.75.75,0,0,1-.5.1c-.3.1-.6.1-.9.2a2.77,2.77,0,0,0-.9.1h-1.2a2.92,2.92,0,0,1-.9-.2c-.2,0-.3-.1-.5-.1h-.1c-.2-.1-.3-.1-.5-.2a2.51,2.51,0,0,1-.7-.4,3,3,0,0,1-.7-.5l-.3-.3-.3-.3h0l-.1-.1-.1-.1c-.2-.2-.4-.3-.5-.5s-.2-.3-.3-.5v-.1l-.1-.1a.35.35,0,0,0-.1-.2c-.1-.1-.1-.2-.2-.3h0c-.1-.2-.1-.3-.2-.4s-.1-.2-.1-.4h0v-.2a3,3,0,0,1-.2-1v-.5h0V53c0-.3.1-.6.1-.9a1.09,1.09,0,0,1,.1-.5c0-.1.1-.3.1-.4l.3-.9h0a2.19,2.19,0,0,1,.3-.5c.1-.2.2-.3.3-.5a1.38,1.38,0,0,1,.3-.4l.4-.4a11.61,11.61,0,0,1,2.2-1.3,12.09,12.09,0,0,1,1.8-.5h.1a2,2,0,0,0,.8.1Zm4.2-9a.37.37,0,0,0-.3.1l-.1.1c0,.1-.1.1-.1.2v.1h0v.1c0,.1,0,.2-.1.2h0v.1c0,.2-.1.3-.1.5l-.1.2c0,.1,0,.2-.1.2h0c0,.2-.1.3-.2.5s-.1.3-.2.4l-.1.1c0,.1-.1.2-.1.3h-.1c-.5,0-.9.1-1.3.1a1.7,1.7,0,0,0-.7.1c-.2,0-.3.1-.5.2h-.3V41c0-.1-.1-.3-.1-.4a1.27,1.27,0,0,0-.1-.6h0v-.5c0-.2-.1-.4-.1-.6a1.42,1.42,0,0,0-.2-.6c0-.1-.1-.1-.1-.2s-.2-.1-.3-.2a.9.9,0,0,0-.5-.1h-.5a1.27,1.27,0,0,0-.6.1h-.1a.76.76,0,0,0-.4.1c-.3.1-.6.1-.8.2h-.5c-.2.1-.5.1-.7.2s-.3.1-.5.1h-.1c-.2,0-.3.1-.5.1s-.3.1-.5.1-.2.1-.3.1a.1.1,0,0,0-.1.1c-.1.1-.2.1-.3.3a1.09,1.09,0,0,0-.1.5V40c0,.2.1.3.1.5s.1.5.1.8.1.4.1.6v.4a.76.76,0,0,0,.1.4v.1c0,.2.1.4.1.6h0v.1l-.1.1a2.19,2.19,0,0,1-.5.3l-.1.1a2.09,2.09,0,0,0-.6.4l-.1.1a2.65,2.65,0,0,0-.6.5l-.1.1c-.2.2-.3.4-.4.5h0c-.1-.1-.3-.1-.4-.2h0l-.9-.3c-.2,0-.3-.1-.5-.1h-.1c-.2,0-.3,0-.4.1l-.3.3a1.61,1.61,0,0,0-.4.7h0c0,.1-.1.1-.1.2l-.1.2h0c-.1.3-.3.5-.4.8s-.1.4-.2.6-.1.3-.1.4-.1.2-.1.3l-.1.1c-.1.2-.1.4-.2.5s0,.1-.1.2h0c0,.1,0,.2-.1.2v.3a.6.6,0,0,1-.1.4v.3c0,.1.1.2.1.3s.2.1.3.2a.37.37,0,0,0,.3.1h.2c.1.1.2.1.4.1s.3.1.4.1h0a.6.6,0,0,1,.4.1.37.37,0,0,1,.3.1v.2h0V52c0,.2-.1.4-.1.6a1.7,1.7,0,0,1-.1.7h0v.8h0v.1h0v.5c0,.4-.1.7-.1,1.1v.1h0c-.2.1-.3.1-.5.2h0c-.1,0-.1,0-.2.1s-.3.1-.4.1h-.2c-.1,0-.2,0-.2.1a4.12,4.12,0,0,0-.8.3h0a.1.1,0,0,0-.1.1l-.1.1-.1.1a.19.19,0,0,0,0,.3c0,.1.1.1.1.2s.1.2.2.3.1.3.2.4a.9.9,0,0,1,.1.5v.1c0,.1.1.3.1.4s.1.3.2.5a9.25,9.25,0,0,0,.5,1c.1.2.2.3.3.5a.1.1,0,0,0,.1.1h0v.1h0a.35.35,0,0,0,.1.2c.1.2.2.3.2.5v.1h0c0,.1.1.2.1.3a.1.1,0,0,0,.1.1c.1.1.1.2.3.3a.37.37,0,0,0,.3.1h.3a1.69,1.69,0,0,0,.5-.2c.1-.1.3-.1.4-.2l.1-.1c.1-.1.3-.1.4-.2s.3-.1.4-.2h0c.1,0,.1-.1.2-.1l.1.1.1.1a1.38,1.38,0,0,0,.3.4,5,5,0,0,0,.7.8l.3.3h0c.1.1.3.2.4.4a1.38,1.38,0,0,1,.3.4l.2.2h0l.1.1.1.1h0V65h0c0,.1-.1.1-.1.2a.76.76,0,0,0-.2.4l-.1.2-.3.6a2.18,2.18,0,0,1-.5.8c-.1.1-.1.3-.2.4s-.1.1-.1.2v.3c.1.1.1.2.2.2a.1.1,0,0,1,.1.1c.2.1.5.2.7.3s.2.1.3.1.3.1.5.2.3.1.4.1l.9.3h0c.2,0,.3.1.5.1s.3.1.5.2h0a.1.1,0,0,1,.1.1h.1c.7,0,1.5-.1,2.2-.1.1-.2.1-.4.2-.5A5.64,5.64,0,0,0,169,68c.1-.2.1-.5.2-.7V67h0l.2.1h.1c.2,0,.3.1.5.1s.6.1,1,.2h1.8c0,.1.1.3.1.4v.1a.6.6,0,0,0,.1.4c0,.1.1.2.1.3h0v.1c.1.2.1.3.2.5v.2h0l.1.1a4.87,4.87,0,0,0,1.2-.1c1,0,2.1-.1,3.1-.1h.8c.1,0,.2-.1.3-.1h.1a.1.1,0,0,0,.1-.1.22.22,0,0,0,.2-.2.35.35,0,0,0,.1-.2v-.2c0-.1,0-.1-.1-.2h0v-.1a.1.1,0,0,0-.1-.1h0V68h0c-.1-.1-.1-.2-.2-.3v-.1h0a1.42,1.42,0,0,1-.2-.6h0l-.1-.2c0-.1-.1-.2-.1-.3s-.1-.2-.2-.3h0a.1.1,0,0,0-.1-.1h0c0-.1-.1-.1-.1-.2h0a.35.35,0,0,0-.1-.2h0a.1.1,0,0,0-.1-.1h0c0-.1-.1-.1-.1-.2h0a.35.35,0,0,0,.2-.1c.1-.1.3-.2.4-.3h.2l.1-.1h0c.1-.1.2-.1.3-.2s.3-.2.5-.3.3-.2.5-.3h.1c.1-.1.2-.1.3-.2a2.19,2.19,0,0,1,.5-.3c.1,0,.1-.1.2-.1h0l.2-.2h.2c.2,0,.3.1.5.1s.3.1.5.2.3.1.4.2h.2a.35.35,0,0,1,.2.1h.1c.1,0,.2.1.3.1h.1a.52.52,0,0,0,.4-.2c.1-.1.1-.1.1-.2h0v-.1c.2-.3.3-.5.5-.8a4.88,4.88,0,0,0,.3-.7c.1-.3.3-.6.4-.9l.2-.3.3-.6a1.8,1.8,0,0,0,.3-1.2.86.86,0,0,0-.3-.6l-.3-.3c-.1-.1-.2-.2-.3-.2s-.3-.1-.4-.2l-.2-.1c-.2-.1-.3-.1-.5-.2s-.5-.1-.7-.2-.4-.1-.6-.1h-.1V55.4h0v-.8h0v-.9h0c.1-.1.2-.3.4-.4s.3-.3.5-.4l.1-.1a1.76,1.76,0,0,0,.5-.4h0c.1-.1.2-.1.3-.2s.2-.2.3-.2a2.18,2.18,0,0,0,.5-.4c.2-.1.3-.2.5-.3s.3-.2.4-.3.1-.2.2-.2a1.7,1.7,0,0,0,.1-.7,4.33,4.33,0,0,1-.1-.5,4.67,4.67,0,0,0-.5-1c-.1-.1-.1-.2-.2-.3h0l-.1-.1c-.1-.1-.1-.2-.2-.4v-.1h0c-.1-.2-.2-.3-.2-.5s-.1-.1-.1-.2h0c0-.1-.1-.1-.1-.2s-.2-.3-.3-.5a1,1,0,0,0-.4-.5c-.1-.1-.2-.2-.3-.2H184a.37.37,0,0,0-.3.1c-.1,0-.2.1-.3.2a1.76,1.76,0,0,0-.5.4h0c-.1.1-.2.2-.3.2a.1.1,0,0,0-.1.1h0c-.1,0-.1.1-.2.1a2.18,2.18,0,0,0-.5.4l-.2.1-.1-.1-.1-.2a1.38,1.38,0,0,0-.3-.4h0v-.1h0a5.55,5.55,0,0,0-.6-.8l-.2-.3c-.1-.1-.1-.2-.2-.3h0c-.1-.1-.2-.2-.2-.3l-.3-.3c0-.1-.1-.1-.1-.2l-.1-.1h0V44a.35.35,0,0,1,.1-.2c0-.1.1-.1.1-.2s.1-.3.2-.5.2-.6.3-1c.1-.2.1-.3.2-.5s0-.1.1-.2h0a.35.35,0,0,1,.1-.2c0-.1.1-.1.1-.2h0v-.4c0-.1-.1-.2-.2-.3l-.1-.1a.1.1,0,0,1-.1-.1.35.35,0,0,1-.2-.1h-.1c-.1,0-.1,0-.2-.1h0c-.1,0-.2,0-.2-.1s-.3-.1-.4-.1h-.2l-.9-.3a1.09,1.09,0,0,0-.5-.1h0c-.2,0-.3-.1-.5-.1s-.5-.1-.7-.2h-.1l-.2-.1c-.1,0-.3-.1-.4-.1h-.1c-.7-.9-.8-1-1-1Zm-39.7-.3h0a10.46,10.46,0,0,0-.4,1.7c0,.5-.1,1-.1,1.4v.8a2,2,0,0,0,.1.7c.1.5.2,1,.3,1.4a.35.35,0,0,0,.1.2h0v.1l.1.2v.1a1.42,1.42,0,0,1,.2.6l.3.6a2.19,2.19,0,0,0,.3.5,2.7,2.7,0,0,0,.8.7,2.19,2.19,0,0,0,.5.3c.1.1.2.1.3.2h0l.1.1c.2.1.3.2.5.3s.3.1.4.2h0a2.54,2.54,0,0,0,.7.2,1.7,1.7,0,0,0,.7.1,10.28,10.28,0,0,0,1.7.1H143a4.67,4.67,0,0,0,1.4-.4,6.38,6.38,0,0,0,1.4-.8l.1-.1h0a14.63,14.63,0,0,1,1.3-.9,2.65,2.65,0,0,0,.6-.5l.1-.1h0l.2-.2.3-.3c.2-.3.4-.5.6-.8a4.05,4.05,0,0,0,.5-.9,1.45,1.45,0,0,0,.2-.7c0-.2.1-.5.1-.7v-.2a.9.9,0,0,1,.1-.5,1.48,1.48,0,0,1,.1-.7V38.9h0a11.63,11.63,0,0,0-.4-1.8h0v0c-.1-.2-.1-.3-.2-.5a1.69,1.69,0,0,1-.2-.5,5.94,5.94,0,0,0-.4-.8l-.3-.3h0l-.2-.2h0l-.1-.1-.6-.6c-.1-.1-.3-.2-.4-.4h0l-.3-.3a2.65,2.65,0,0,0-.6-.5c-.4-.3-.9-.6-1.2-.8-.1,0-.3-.1-.4-.1h-1.9a3.55,3.55,0,0,1-1-.2.1.1,0,0,0,.1-.1h-.2a5.16,5.16,0,0,1-1.1.2h-.1a6.37,6.37,0,0,1-.7.2c-.2.1-.4.1-.6.2s-.3.1-.4.2-.3.2-.5.3a9.22,9.22,0,0,0-.8.5,4.62,4.62,0,0,0-.7.7c-.2.2-.4.5-.6.7s-.3.3-.4.5a2.09,2.09,0,0,1-.4.6C135.13,36.7,134.93,37.1,134.83,37.5Zm9.5-17.8h.8c.1,0,.2.1.3.1a.82.82,0,0,1,.4.6,3.75,3.75,0,0,1,.1,1.1c0,.3-.1.5-.1.7s-.1.4-.1.6-.1.3-.1.5v.1a.37.37,0,0,1-.1.3h0v.5h0a.37.37,0,0,1-.1.3v.3h.1c.1,0,.2.1.3.1h0a5.64,5.64,0,0,1,1.2.4.76.76,0,0,0,.4.2h0l.1.1c.2.1.3.2.5.3s.2.1.3.2h.1c.1,0,.1.1.2.1h0c.1.1.3.2.4.4l.3.3.2.2.1.1.2.2.2.2h.1c.1,0,.2-.1.3-.2l.1-.1h0c.1-.1.2-.2.3-.2l.2-.2h0c.1,0,.1-.1.2-.2l.1-.1c.2-.1.3-.3.4-.4h0l.5-.5.5-.5c.1-.1.2-.1.2-.2h0c.1-.1.2-.2.3-.2h.1l.2-.2c.1-.1.2-.1.3-.2h.2c.1,0,.1,0,.2.1s.1.1.2.1.2.1.2.2h0a1.38,1.38,0,0,1,.3.4l.1.1.2.2.3.3.2.2.3.3c0,.1.1.1.1.2a5.5,5.5,0,0,1,.7.9h0l.1.1c0,.1.1.1.1.2s.1.1.1.2h0l.1.1c0,.1.1.1.1.2v.2a.76.76,0,0,1-.1.4c-.1.2-.2.3-.3.5s-.3.3-.4.5l-.2.2-.2.2-.3.3h0c-.2.2-.3.4-.5.6l-.2.2h0l-.6.6a2.09,2.09,0,0,0-.4.6,1105738137615.6,1105738137615.6,0,0,0,.2.2l.2.2a2.38,2.38,0,0,1,.6,1.1c.1.1.1.2.2.3h0a5.94,5.94,0,0,0,.4.8c.1.2.1.4.2.6l.1.2c0,.1.1.2.1.4s.1.4.2.6a4.33,4.33,0,0,1,.1.5h0c.1,0,.3.1.4.1h.1c.2,0,.3.1.5.1s.3.1.4.1h.1a.9.9,0,0,0,.5.1c.1,0,.3.1.4.1h0a1.42,1.42,0,0,1,.6.2,3,3,0,0,1,1,.4.1.1,0,0,1,.1.1h0l.1.1c.1.1.2.2.2.3v.3c0,.2-.1.4-.1.6V40a.37.37,0,0,1-.1.3h0a.37.37,0,0,1-.1.3,4.33,4.33,0,0,1-.1.5c-.1.3-.2.7-.3,1.1s-.3.8-.4,1.1h0l-.1.2a.35.35,0,0,1-.1.2.37.37,0,0,1-.3.1h-.9a4.33,4.33,0,0,0-.5.1h-.2a.6.6,0,0,0-.4.1c-.2,0-.4.1-.6.1H156v.1c0,.1,0,.1-.1.2a.35.35,0,0,1-.1.2l-.1.2c-.1.2-.2.5-.3.7h0v.1h0a9.29,9.29,0,0,1-.5,1,7.26,7.26,0,0,0-.5.9,5.55,5.55,0,0,1-.6.8c-.1.1-.2.3-.3.4s-.2.2-.2.3l-.1.1v.1h0l.3.3.1.1.3.3c.1,0,.1.1.2.1s.3.2.4.3l.2.2c.1.1.1.2.2.2l.2.2h0l.2.2.1.1h0l.3.3.1.1h0l.1.1.1.1.1.1h0l.1.1.1.1c0,.1.1.1.1.2a.37.37,0,0,1-.1.3l-.2.2c-.1.1-.3.2-.4.4h0v.1a1.38,1.38,0,0,0-.3.4c-.1.2-.3.3-.4.5h0a1.38,1.38,0,0,0-.3.4l-.1.1-.3.3-.1.1h0l-.3.3-.4.4h0c-.1.1-.2.1-.3.2h-.1c-.1,0-.1,0-.2-.1a.22.22,0,0,1-.2-.2h0l-.6-.3-.6-.3a2.09,2.09,0,0,1-.6-.4c-.1-.1-.3-.2-.4-.3h0l-.1-.1c-.3-.2-.7-.4-1-.6h-.1l-.1.1h0a1.38,1.38,0,0,1-.4.3c-.2.1-.3.2-.5.3-.4.2-.7.4-1.1.6a3.58,3.58,0,0,1-1.1.4c-.2.1-.4.1-.6.2h-.2a.37.37,0,0,0-.3.1V57h0v.8a1.27,1.27,0,0,1-.1.6v.3c0,.3-.1.7-.1,1a.37.37,0,0,1-.1.3h0a.76.76,0,0,1-.2.4.37.37,0,0,1-.3.1h-.3c-.1,0-.1,0-.2-.1h-.1a3.75,3.75,0,0,0-1-.1,3.75,3.75,0,0,1-1-.1h-1.4a1.27,1.27,0,0,1-.6-.1H139a.55.55,0,0,1-.3-.5v-.2h0V56h0v-.6h-.2c-.1,0-.1,0-.2-.1h0c-.1,0-.2-.1-.3-.1h-.3c-.1-.1-.2-.1-.4-.2s-.3-.2-.5-.3h0c-.1-.1-.3-.2-.4-.3l-.1-.1c-.2-.1-.3-.2-.5-.3a5.5,5.5,0,0,1-.9-.7.78.78,0,0,1-.4-.4h0c-.1.1-.2.3-.3.4s-.2.3-.4.5l-.4.4a6.47,6.47,0,0,1-.9.8,9.68,9.68,0,0,0-.9.7l-.1.1h0a.52.52,0,0,1-.4.2h0c-.1.1-.3.1-.4.2s-.3-.1-.5-.2l-.6-.6h0l-.3-.3-.4-.4c-.2-.2-.3-.4-.4-.5l-.1-.2a3.51,3.51,0,0,0-.5-.8c-.2-.2-.3-.4-.5-.6l-.2-.2-.1-.1a.35.35,0,0,1-.1-.2.35.35,0,0,0-.1-.2v-.1h0a.19.19,0,0,1,0-.3.22.22,0,0,1,.2-.2l.1-.1.4-.4.7-.7.6-.6.5-.5h0v-.1c-.1-.2-.1-.4-.2-.5a1.42,1.42,0,0,0-.2-.6,4.87,4.87,0,0,0-.4-1.1,1.42,1.42,0,0,1-.2-.6h0c0-.1-.1-.3-.1-.4a8.11,8.11,0,0,1-.3-1.1.37.37,0,0,0-.1-.3c0-.1,0-.1-.1-.2V44h-.4c-.1,0-.2-.1-.3-.1h-1.4a.6.6,0,0,1-.4-.1.37.37,0,0,1-.3-.1c-.1,0-.2-.1-.3-.1h0a.35.35,0,0,1-.2-.1h-.1c-.1,0-.2-.1-.4-.1h-.2c-.1,0-.1,0-.2-.1s-.1-.1-.2-.2a.6.6,0,0,1-.1-.4h0V39.9h0V38.4a.6.6,0,0,1,.1-.4q0-.15.3-.3c.1,0,.2-.1.3-.1h.5c.2,0,.4-.1.6-.1h2.5v-.3c0-.1.1-.3.1-.4.1-.3.2-.7.3-1s.1-.4.2-.6h0c.1-.2.1-.3.2-.5s.1-.4.2-.6.1-.3.2-.4h0l.1-.1c.1-.1.2-.3.3-.4h0a.76.76,0,0,0,.2-.4l-.1-.1c-.1-.1-.2-.2-.2-.3s-.1-.1-.1-.2h0c-.1-.1-.1-.2-.2-.3l-.6-.9a8.79,8.79,0,0,1-.6-1l-.1-.1h0c-.1-.3-.3-.5-.4-.8h0l-.3-.3h0c-.1-.1-.1-.2-.2-.3v-.1a.1.1,0,0,0-.1-.1h0a.35.35,0,0,1-.1-.2v-.3l.3-.3.2-.2h.1a1.76,1.76,0,0,0,.5-.4h.1c.2-.1.3-.2.5-.3h0l.1-.1c.1-.1.2-.1.3-.2h0c.1-.1.2-.1.2-.2a4.35,4.35,0,0,1,.7-.4c.1-.1.2-.1.3-.2h0c.2-.1.4-.3.6-.4s.2-.1.3-.2h.3a.37.37,0,0,1,.3.1c.2.1.3.3.5.4l.3.4.3.4c.2.2.4.5.6.7l.2.2.1.1c.1.1.2.2.2.3s.1.2.2.3l.1.1h0l.2-.2h.1c.1-.1.2-.2.3-.2s.2-.2.3-.2a.76.76,0,0,1,.4-.2h0c.1,0,.1-.1.2-.1a2.19,2.19,0,0,0,.5-.3l.1-.1c.1-.1.3-.1.4-.2a55631376921675.27,55631376921675.27,0,0,0,1.2-.4l.3-.1c.2-.1.4-.1.6-.2h.1c.1,0,.1,0,.2-.1h.1a.1.1,0,0,0,.1-.1h0c0-.3.1-.7.1-1h0v-4c0-.1.1-.3.2-.3a1.42,1.42,0,0,1,.6-.2h3.8Z"/><path class="cls-5" d="M128.33,107.7s17.2-13.3,24.3-18.4A54.27,54.27,0,0,1,185,79.6c7.2.4,15.7,5.1,21.6,9.4,3.2,2.4,6.6,7,9.2,10.6l.6.9c7.9,10.9,8.5,24.3,5.2,36.3-2.4,9-7.3,18-15.5,24a42.59,42.59,0,0,1-51.5-1.2c-3.5-8.6-9.9-17.3-17.5-22.8h0C135.13,130.8,128.33,107.7,128.33,107.7Z"/><path class="cls-2" d="M172.13,106.6h-.3c-.1,0-.2.1-.3.1s-.3.2-.5.3a2.18,2.18,0,0,0-.4.5c-.1.1-.1.3-.2.4s-.1.3-.1.4v.7a1.42,1.42,0,0,0,.2.6c.1.1.1.2.2.3l.3.3c.2.1.3.2.5.2a.6.6,0,0,1,.4.1h.7a4.33,4.33,0,0,0,.5-.1c.1,0,.2-.1.3-.2s.2-.1.3-.2l.3-.3a.37.37,0,0,0,.1-.3v-1a1.42,1.42,0,0,0-.2-.6c-.1-.1-.2-.3-.3-.4s-.1-.1-.1-.2l-.2-.2-.1-.1-.6-.3c-.2,0-.3-.1-.5,0Zm10.2,1.9h-.2a1.69,1.69,0,0,0-.5.2,14.56,14.56,0,0,0-1.6.9c-1.3.8-2.9,1.9-4.3,2.9-.6.4-1.1.8-1.6,1.1h0c-.7.5-1.3.9-1.7,1.2a8.18,8.18,0,0,0-.9.8.66.66,0,0,0-.2.7h0c1.1-.9,3.4-2.5,5.7-4.1,1.9-1.3,3.7-2.6,4.9-3.3v.1c0,.1.1.2.1.3a.31.31,0,0,0,.2.1h.1l-.1-.5-.2-.2h0l.2.2v-.3h0l.1-.1h0l-.1.1h0l.1-.1h0c0,.1.1.1,0,0h0m.5,0h0l-.6.1h-.1c-.1.1-.1.1-.1,0l-.1.1c.3,0,.2,0,.1.1l.2-.1m-.2.1c-.1,0-.1.1-.2.1s.1-.2.2-.1Zm0-1.2c.1,0,.3-.1.5,0a1.12,1.12,0,0,1,.8.7l-.4.1.4-.1.1.4.1.4-.3.2-.3.2c-.9.5-3.1,1.9-5.3,3.5s-4.6,3.2-5.6,4.1l-.6.5-.6.4-.2-.7-.2-.7a1.81,1.81,0,0,1,.4-1.5,5.47,5.47,0,0,1,1.1-1c.5-.4,1.1-.8,1.8-1.3h0c.5-.3,1-.7,1.6-1.1,1.4-1,3-2.1,4.3-2.9a19.41,19.41,0,0,0,1.7-1,1.85,1.85,0,0,1,.7-.2l.1.5Zm.3.9Zm13.9,3.8.2.3.6.8.2.3-.3.3a24.73,24.73,0,0,1-5.5,3.9,56.69,56.69,0,0,1-5.1,2.5c-2.9,1.3-5.4,2.3-7.4,3-1,.3-1.8.6-2.4.7-.3.1-.6.1-.9.2h-.8l-1.4-.4-1.3-.3,1.2-.5,1.3-.6c6.6-2.8,16.2-7.3,21.1-9.9Zm-.3,1.2c-5,2.7-14.4,7.1-20.8,9.8h.5c.2,0,.5-.1.8-.1.6-.1,1.4-.4,2.4-.7a72.21,72.21,0,0,0,7.3-2.9h0a46,46,0,0,0,5-2.5,26.21,26.21,0,0,0,5-3.5Zm-11.8,5.8c1.8-.8,3.6-1.7,5.3-2.5l.4.8c-1.5.8-2.9,1.4-3.9,1.9h0a6.11,6.11,0,0,0-1.4.7Zm-7,23.5a1.7,1.7,0,0,1-.7-.1h-.2c-.1,0-.2-.1-.3-.1s-.3-.1-.4-.2-.3-.2-.4-.3a3,3,0,0,1-.8-.8c-.1-.1-.1-.2-.2-.3a.9.9,0,0,1-.1-.5v-1.2a4,4,0,0,1,.4-1.3l.3-.6.3-.3.2-.2a.1.1,0,0,0,.1-.1h0a.76.76,0,0,1,.4-.2h.1a.76.76,0,0,1,.5-.2h0a.1.1,0,0,0,.1-.1v-.1h1.1a1.42,1.42,0,0,1,.6.2,3,3,0,0,1,.8.4,4.35,4.35,0,0,1,.7.4l.2.2a8.79,8.79,0,0,1,.6,1c0,.1.1.2.1.3s.1.3.1.4v.9c0,.2-.1.3-.1.5s-.1.4-.2.5-.2.3-.3.5h0c-.1.2-.3.3-.4.5s-.4.3-.6.5-.2.1-.3.2a1.27,1.27,0,0,1-.6.1h-1Zm9.9-8c.3-.1.7-.2,1-.3h.3a1.48,1.48,0,0,1,.7.1l1,.3a.35.35,0,0,1,.2.1.22.22,0,0,1,.2.2.1.1,0,0,0,.1.1c.1.1.2.2.2.3s.1.2.2.3.1.1.1.2a.76.76,0,0,1,.2.5l.3.9v.4a.9.9,0,0,1-.1.5c0,.2-.1.4-.1.6a1.42,1.42,0,0,1-.2.6c-.1.1-.1.2-.2.4l-.6.6a10.91,10.91,0,0,1-1.1.6.6.6,0,0,1-.4.1h-.5a2.2,2.2,0,0,1-.8-.1c-.2,0-.4-.1-.6-.1s-.1-.1-.2-.1c-.2-.2-.5-.4-.6-.6l-.2-.2a1.76,1.76,0,0,1-.4-.5,2.19,2.19,0,0,1-.3-.5,1.27,1.27,0,0,1-.1-.6,2.77,2.77,0,0,1,.1-.9h0c0-.2.1-.3.1-.5s.1-.3.2-.5a3.51,3.51,0,0,1,.5-.8l.4-.4a1.38,1.38,0,0,1,.4-.3c-.1-.3,0-.3.2-.4Zm-19.1,2.6h-.5a3.09,3.09,0,0,1-.8-.2,1.42,1.42,0,0,0-.6-.2h0c-.1-.1-.2-.1-.4-.2s-.2-.2-.3-.2c-.2-.2-.4-.3-.5-.5s-.1-.2-.2-.3-.1-.4-.2-.6a4.33,4.33,0,0,1-.1-.5v-1.2c.1-.3.1-.6.2-.8l.3-.6a1,1,0,0,1,.4-.5l.3-.3c.1,0,.1,0,.2-.1h0l.6-.3c.3-.1.6-.1.9-.2h.1c.1,0,.1-.1.2-.2h.5a2.2,2.2,0,0,1,.8.1,1.85,1.85,0,0,1,.7.2c.1.1.2.1.3.2s.3.1.4.2.3.3.5.5a2.19,2.19,0,0,1,.3.5c0,.1.1.2.1.4h0a.9.9,0,0,1,.1.5c0,.3.1.5.1.7v.7a.76.76,0,0,1-.1.4c0,.1-.1.2-.1.3s-.1.2-.1.3-.1.3-.2.5h0c-.1.1-.1.3-.2.4a1.38,1.38,0,0,1-.3.4l-.3.3a2.19,2.19,0,0,1-.5.3c-.1,0-.1.1-.2.1h-.1c-.1,0-.2.1-.3.1s-.3.1-.4.1h0c-.3-.3-.4-.3-.6-.3Zm18.8-11h0c.1-.2.2-.3.3-.5l.2-.2a.35.35,0,0,1,.2-.1c.1,0,.1,0,.2-.1h.2c.1,0,.2,0,.2.1h.1l.2.2h0a.35.35,0,0,0,.2.1h0c0,.1.1.1.1.2s.1.2.1.3v.4c0,.1-.1.3-.1.4v.1c0,.2-.1.3-.1.5a8.79,8.79,0,0,1-.6,1c-.1.2-.3.3-.4.5l-.1.1h0c-.1.2-.3.3-.5.5s-.4.3-.6.5l-.2.1c-.1.1-.2.2-.3.2a2.19,2.19,0,0,1-.5.3c-.2.1-.3.2-.5.3a4.67,4.67,0,0,1-1,.5h0c-.1,0-.2.1-.3.1h0l-.1.1a.9.9,0,0,1-.5.1c-.2,0-.4.1-.6.1s-.3.1-.5.1h-2c-.2,0-.4-.1-.6-.1s-.3-.1-.4-.1h-.4c-.2,0-.3-.1-.5-.1a3.37,3.37,0,0,1-1.2-.4,2.51,2.51,0,0,1-.7-.4h0l-.1-.1h0c-.1-.1-.2-.1-.3-.2a1.38,1.38,0,0,0-.4-.3h-.1l-.2-.2h0l-.2-.2-.1-.1-.1-.1-.3-.3-.1-.1a1.21,1.21,0,0,1-.5-.5c-.1-.2-.2-.3-.2-.4s-.1-.2-.1-.3v-.2c0-.1,0-.1.1-.2a.1.1,0,0,1,.1-.1l.1-.1a.31.31,0,0,1,.2-.1h.5c.2,0,.3.1.5.1a3.51,3.51,0,0,1,.8.5l.2.2h0a.1.1,0,0,1,.1.1c.1,0,.1.1.2.1s.1.1.2.1l.2.2h0l.3.3a4.23,4.23,0,0,0,.7.5c.1.1.2.1.3.2l.1.1c.1,0,.2.1.3.1s.3.1.5.2l.2.1.2.1a2.92,2.92,0,0,0,.9.2h.8a2.92,2.92,0,0,0,.9-.2c.2-.1.4-.1.6-.2l.2-.1a6.89,6.89,0,0,0,.8-.3,10.93,10.93,0,0,0,1.5-.8h0c.1-.1.2-.1.3-.2l.2-.1h0c.1,0,.1-.1.2-.1l.3-.3h0a1.79,1.79,0,0,0,.5-.7,3.55,3.55,0,0,0,.4-.9v-.1h0c-.1,0-.1-.2,0-.4Zm9.7,5.7a1.7,1.7,0,0,1-.7-.1c-.2,0-.3-.1-.5-.1s-.2-.1-.3-.2h-.1c-.1-.1-.3-.1-.4-.2l-.5-.5c-.1-.1-.2-.3-.3-.4h0l-.1-.1-.3-.6-.3-1.2v-1.3c0-.1.1-.3.1-.4s.1-.3.1-.4.1-.2.1-.3.1-.2.2-.3a2.34,2.34,0,0,1,.7-.7c.1-.1.2-.1.3-.2s.2-.1.3-.1a3.09,3.09,0,0,1,.8-.2h.8a2.2,2.2,0,0,1,.8.1,1.42,1.42,0,0,1,.6.2.35.35,0,0,1,.2.1c.2.1.3.3.5.4l.2.2c.1.1.1.2.2.3s.1.2.1.3.1.1.1.2.1.3.2.4a.1.1,0,0,0,.1.1h0l.1.1c.1.3.2.7.3,1.1v.5a1.27,1.27,0,0,1-.1.6c0,.2-.1.3-.1.4s-.1.2-.1.4a4.05,4.05,0,0,1-.5.9l-.4.4c-.1.1-.2.1-.4.2s-.3.1-.4.2a3,3,0,0,1-1,.2Zm-8.5-10.1h-.1c-.1,0-.1,0-.2-.1a.35.35,0,0,1-.2-.1l-.1-.1a.1.1,0,0,0-.1-.1v-.4c0-.1,0-.2.1-.2s.1-.1.1-.2l.2-.2a.1.1,0,0,0,.1-.1c.1,0,.1,0,.2-.1h.4c.1,0,.1.1.2.1v.2a.37.37,0,0,1,.1.3c0,.1,0,.1.1.2v.4a.1.1,0,0,1-.1.1l-.1.1-.1.1c-.1,0-.1,0-.2.1Zm-22.8,2.4.1-.1h0l.1-.1a5.58,5.58,0,0,0,.5-.8c.3-.6.7-1.2,1-1.8a2.09,2.09,0,0,1,.4-.6l.2-.2.1-.1.1-.1v-.1h0c0-.1.1-.1.1-.2v-.1c.1-.2.3-.3.5-.5a2.19,2.19,0,0,1,.5-.3c.1,0,.2-.1.3-.1h.4c.1,0,.1,0,.2.1s.3.1.4.2h0l.1.1.1.1h0a2.65,2.65,0,0,1,.5.6l.1.1.1.1c.1.1.2.2.2.3s.1.2.2.4.1.3.2.4.1.2.1.4v.3c0,.1,0,.2-.1.2a1.38,1.38,0,0,1-.3.4c-.1.2-.3.3-.4.4a.76.76,0,0,1-.4.2.6.6,0,0,1-.4.1h0c-.2.1-.4.1-.6.2a5.85,5.85,0,0,1-1.3.2H168c-.3,0-.5.1-.8.1a.75.75,0,0,0-.5.1h-1.1a.75.75,0,0,1-.5.1Zm8.4-5.9h0a1.38,1.38,0,0,0-.3-.4.35.35,0,0,1,.2-.1c.1-.1.2-.1.3-.2l.1-.1.1-.1h.1l.1-.1.1-.1h.1a2.09,2.09,0,0,0,.6-.4l.2-.1c.4-.3.9-.6,1.3-.9l1.1-.8.6-.3c.1-.1.3-.1.5-.2h0l.1-.1c0,.1.1.2.2.3l.1.1h0l.1.1c0,.1.1.1.1.2h0l.1.1c.1.1.1.2.2.3s.2.3.3.4.2.3.3.5.2.3.3.4.2.1.2.2h0l.1.1c.1.1.2.2.3.2h0l-.6.3h0c-.1,0-.2.1-.4.2h-.1c-.1,0-.1.1-.2.1l-.4.1c-.3.1-.5.2-.8.3-.1,0-.3.1-.4.1H178l-.2.1c-.2.1-.4.1-.6.2s-.2.1-.3.1h-.1c-.2.1-.4.1-.5.2s-.3.1-.4.2-.1.1-.2.1h-.1a.1.1,0,0,0-.1.1c-.1.1-.3.1-.4.2s-.2.1-.3.1h0l-.1.1a.1.1,0,0,0-.1.1h0c-.1,0-.1.1-.2.1V120c-.1-.2-.1-.4-.2-.5l-.3-.6c-.1-.1-.2-.2-.2-.3s-.1-.1-.2-.1Zm-4.6-9.7v-.7a2.2,2.2,0,0,1,.1-.8,6.37,6.37,0,0,1,.2-.7,5.74,5.74,0,0,1,.4-.7c0-.1.1-.1.1-.2s.1-.1.2-.1h0a5.39,5.39,0,0,1,1.3-.7l1.1-.3h1a.77.77,0,0,0,.3.2.76.76,0,0,1,.4.2c.1.1.3.1.4.2a1,1,0,0,1,.4.5h0c.1.1.1.2.2.3l.1.1c.1.1.1.2.2.3s.1.2.2.4a2.61,2.61,0,0,1,.3,1.1,3.75,3.75,0,0,1-.1,1,1.85,1.85,0,0,1-.2.7,2.09,2.09,0,0,1-.4.6h0c-.1.1-.2.2-.2.3l-.2.2a.52.52,0,0,1-.4.2.76.76,0,0,1-.5.2l-.9.3h-.4a2.49,2.49,0,0,1-.8-.1l-1.2-.3c-.1,0-.2-.1-.3-.2s-.3-.3-.5-.5-.3-.3-.4-.5a2.51,2.51,0,0,1-.4-.7v-.3Zm12.5,4.4h0l-.1-.2c-.1-.1-.2-.3-.3-.4l.3-.3.1-.1.2-.1.2-.1.1-.1h.1c.2-.2.5-.3.7-.5s.3-.2.5-.3.2-.1.4-.2h.1c.3-.1.5-.3.8-.4l.2-.1.4-.2.6-.3c.2-.1.3-.2.5-.3s.3-.2.5-.3a9.29,9.29,0,0,1,1-.5l.2-.1h0c.3-.1.5-.2.8-.3l.3-.1.3-.1h0c.4-.2.9-.4,1.4-.6.2-.1.5-.2.7-.3a.35.35,0,0,0,.2-.1h.1c.1-.1.2-.1.4-.2l.2-.1.4-.2a1.42,1.42,0,0,1,.6-.2l.2-.1c.2-.1.3-.1.5-.2h.1c.1,0,.2-.1.3-.1a6.89,6.89,0,0,0,1-.4h.1c.3-.1.5-.2.8-.3l.2-.1h0c.2-.1.5-.2.7-.3s.2-.1.4-.1h.1c.1,0,.2-.1.3-.1a1.85,1.85,0,0,1,.7-.2,3.09,3.09,0,0,1,.8-.2,2.2,2.2,0,0,1,.8-.1h.5c.1,0,.1,0,.2.1a.1.1,0,0,1,.1.1l.1.1v.3c0,.1,0,.1-.1.1s-.1.1-.1.2l-.6.6a2.18,2.18,0,0,1-.5.4l-.3-.2-.1.1c-.5.4-.9.8-1.3,1.1s-.7.5-1,.7h0c-.2.2-.5.3-.7.5s-.5.3-.7.5a8.65,8.65,0,0,1-1,.7c-.4.3-1,.7-1.6,1.1l-.3.3h-.1c-.1.1-.2.2-.3.2a1.79,1.79,0,0,1-.7.5c-.4.3-.7.5-1,.7a7.63,7.63,0,0,0-1.1.8h0c-.1.1-.2.2-.3.2s-.4.3-.6.4h0l-.2.1a5.58,5.58,0,0,0-.8.5l-.1.1c-.3.2-.6.3-.9.5a9,9,0,0,0-.9.5.76.76,0,0,1-.4.2h0l-.2.1-.6.3h0c-.1,0-.2.1-.4.1s-.1-.1-.2-.1h0l-.1-.1c-.1-.1-.2-.2-.2-.3l-.1-.2v-.1c-.1-.1-.2-.2-.2-.3l-.1-.1a2.65,2.65,0,0,0-.5-.6l-.3-.3a5.72,5.72,0,0,1-.7-.8l-.1-.1v-.1h0c-.3.3-.3.2-.4.1ZM178.33,98H178c-.5,0-1,.1-1.4.1s-.9.1-1.3.2l-2.7.6h-.1a10.66,10.66,0,0,0-1.9.7c-.2.1-.4.1-.5.2l-.2.1-.3.1c-.2.1-.3.1-.5.2-.4.2-.9.4-1.3.6a10.91,10.91,0,0,0-1.1.6h0l-.2.1a5.58,5.58,0,0,0-.8.5h0a.76.76,0,0,1-.4.2,6.73,6.73,0,0,0-1.1.7h0c-.4.3-.9.5-1.3.8l-.1.1h0c-.1.1-.3.2-.4.3l-.1.1a1.76,1.76,0,0,0-.5.4c-.3.3-.7.6-1,.9l-.1.1h0l-1.8,1.8a10.63,10.63,0,0,0-.9,1.1c-.3.4-.5.7-.8,1.1a.52.52,0,0,0-.2.4c-.1.2-.2.3-.3.5l-.1.1-.2.3c0,.1-.1.1-.1.2h0c-.1.1-.2.2-.2.3a2.09,2.09,0,0,1-.4.6c-.2.4-.4.8-.7,1.3a6.94,6.94,0,0,0-.5,1.3c-.1.4-.3.8-.4,1.2h0v.2c-.1.2-.1.4-.2.6h0a2.35,2.35,0,0,0-.2.8c-.1.5-.2,1-.3,1.4l-.1.3c-.1.4-.1.7-.2,1.1s-.1.6-.1.8h0a.75.75,0,0,1-.1.5.6.6,0,0,1-.1.4h0c0,.3-.1.6-.1.9v1h0v.7h0v1.7a1.7,1.7,0,0,0,.1.7v.5a2.77,2.77,0,0,0,.1.9v.2a5,5,0,0,0,.2,1.2l.1.3c.1.4.1.7.2,1.1h0v.1h0c0,.2.1.3.1.5v.1h0c0,.2.1.3.1.5a15.25,15.25,0,0,0,.9,2.5l.6,1.2v.1c.2.4.3.7.5,1.1a3.51,3.51,0,0,0,.5.8h0l.1.2a2.19,2.19,0,0,1,.3.5l.1.2.2.3.1.2v.1h0c.1.1.1.2.2.3l.1.2.1.1c.1.1.1.2.2.2.2.3.5.7.7,1l.1.1a8.74,8.74,0,0,0,.8,1l.4.4h0l.6.5.6.6h0l.4.4a8.74,8.74,0,0,0,1,.8h0l.2.1a13,13,0,0,0,2.3,1.5c.4.2.8.5,1.2.7s.7.3,1,.5h0l.1.1c.1,0,.2.1.3.1l.6.3c.3.1.6.3.9.4.1,0,.2.1.3.1s.2.1.3.1a1.42,1.42,0,0,0,.6.2l1.2.4.2.1.2.1.9.3a4.25,4.25,0,0,0,1.1.2h.1l.3.1c.2,0,.4.1.6.1h.2a.37.37,0,0,1,.3.1c.2,0,.4.1.6.1h0a.9.9,0,0,1,.5.1,3.75,3.75,0,0,0,1.1.1h.2c.3,0,.7.1,1,.1h1.3a4.48,4.48,0,0,0,1.2-.1h.1a6.88,6.88,0,0,0,1.3-.2c.2,0,.3-.1.5-.1s.5-.1.7-.1.5-.1.8-.1h.1c.1,0,.3-.1.4-.1a.76.76,0,0,0,.4-.1h.1c.3-.1.6-.1.8-.2h.2c.3-.1.7-.1,1.1-.2s.9-.3,1.3-.4.8-.3,1.2-.5a4.88,4.88,0,0,1,.7-.3l.1-.1h0c.1-.1.2-.1.3-.2.9-.4,1.5-.8,2.1-1.1.1-.1.2-.1.3-.2l.1-.1c.1,0,.1-.1.2-.1l.5-.3c.2-.1.3-.2.5-.3h.1c.2-.1.3-.2.5-.3s.4-.3.6-.4h.1l.3-.2a5.55,5.55,0,0,0,.8-.6l.1-.1.1-.1a8.7,8.7,0,0,0,1.1-.9l.4-.4h0l.5-.5a2.18,2.18,0,0,1,.5-.4.78.78,0,0,0,.4-.4,6,6,0,0,0,.8-.8,10.63,10.63,0,0,0,.9-1.1c.1-.2.3-.3.4-.5s.1-.2.2-.3h0l.2-.2.1-.2c.1-.1.1-.2.2-.3s.2-.3.3-.4l.1-.1h0c.2-.2.4-.5.7-.8v-.1c.1-.1.2-.3.3-.4s.2-.3.3-.5h0l.3-.6.1-.3.1-.2c.1-.1.2-.3.3-.4a.76.76,0,0,0,.2-.4c.1-.1.1-.2.2-.4h0l.1-.1a.35.35,0,0,1,.1-.2,9.44,9.44,0,0,0,.3-.9h0c0-.1.1-.2.1-.4s.1-.3.1-.4a.37.37,0,0,1,.1-.3,1.27,1.27,0,0,0,.1-.6,1.27,1.27,0,0,1,.1-.6h0v-.3a3.08,3.08,0,0,1,.1-.9v-.8h0v-.7c0-.3-.1-.6-.1-.9v-.1h0a.76.76,0,0,0-.1-.4c0-.2-.1-.3-.1-.5v-.1l-.3-1.2a1.85,1.85,0,0,1-.2-.7c-.1-.1-.1-.3-.2-.4h0v-.1l-.1-.1a6.89,6.89,0,0,0-.3-.8,17.22,17.22,0,0,0-1.3-2.3c-.2-.3-.3-.5-.5-.8l-.2-.3h0c-.1-.1-.2-.3-.3-.4-.2-.3-.4-.5-.6-.8s-.4-.5-.6-.7c-.4-.4-.9-.8-1.3-1.2h0c-.5-.4-.9-.8-1.4-1.2-.3-.2-.5-.4-.7-.5s-.3-.2-.5-.3l-.2-.1-.2-.1a4.88,4.88,0,0,0-.7-.3.6.6,0,0,0-.4-.1h-.1l.1-.1.1-.1.1-.1h0c.2-.2.5-.4.7-.6l.2-.2.1-.1h0l.3-.3c.2-.2.5-.4.7-.6l.2-.2c.2-.1.4-.3.6-.4s.6-.5.9-.7c.1-.1.3-.2.4-.3l.1-.1.1-.1.2-.2c.1-.1.3-.2.4-.3s.3-.2.4-.3l.1-.1h0l.6-.6a2.41,2.41,0,0,0,.6-.8l.1-.1.2-.2h0c.2-.2.3-.4.5-.6l.1-.1V106h0c.1-.1.1-.2.2-.3s.2-.3.3-.4a3,3,0,0,0,.4-1c0-.2.1-.3.1-.5v-.6a.75.75,0,0,0-.1-.5c-.1-.2-.1-.3-.2-.4s-.2-.3-.3-.5l-.1-.1h0c-.1-.1-.1-.2-.2-.2l-.2-.2h-.1l-.1-.1h0a.9.9,0,0,0-.5-.1c-.2,0-.4-.1-.6-.1h-.5a3.08,3.08,0,0,0-1,.1h0a3,3,0,0,0-1,.2c-.3.1-.7.1-1,.2h0c-.3.1-.6.1-.9.2a8.8,8.8,0,0,1-1.5.5h0l-.1.1h0c-.1,0-.2.1-.4.1-.7.3-1.4.5-2.1.8l-.3.1h0c-.2.1-.4.1-.6.2-.4.1-.7.3-1.1.4s-.6.3-.9.4-.7.3-1,.5c-.5.2-.9.4-1.4.6l-.3.1-.2.1-.3.1a4.88,4.88,0,0,0-.7.3,9.29,9.29,0,0,1-1,.5l-.2.1-.1.1-.6.3a.35.35,0,0,0-.2.1h-.1l-.1.1c-.1.1-.3.1-.4.2l-.2.1h0a2.51,2.51,0,0,0-.7.4l-.2.1-.2.1c-.1.1-.2.1-.3.2l-.1.1-.1.1h0l-.2-.2h0v-1.1a.37.37,0,0,1,.1-.3c0-.1.1-.2.1-.3a2.18,2.18,0,0,1,.5-.8l.1-.2.1-.1.2-.2c.1-.2.3-.4.4-.6s.1-.2.2-.3h0l.1-.1.3-.6a1.42,1.42,0,0,0,.2-.6c0-.2.1-.4.1-.6v-.6a1.48,1.48,0,0,0-.1-.7,3.37,3.37,0,0,0-.4-1.2c-.1-.2-.3-.4-.4-.6l-.4-.4h0a1.38,1.38,0,0,1-.4-.3l-.6-.3c-.1,0-.2-.1-.3-.1s-.1,0-.2-.1h-.1a1.7,1.7,0,0,0-.7-.1h-.2C179.73,98.1,179,98,178.33,98Zm18.4,28.4h-.1c-.1,0-.2.1-.3.2h0c-.1,0-.1,0-.2.1l-.6.3-.4.4a2.23,2.23,0,0,0-.5,1.3,1.7,1.7,0,0,0,.1.7,2.51,2.51,0,0,0,.4.7l.2.2h.1c.1.1.2.1.4.2s.4.1.6.2h.1a2.2,2.2,0,0,0,1.3-.4l.3-.3h0c.1-.1.2-.2.2-.3a4.88,4.88,0,0,0,.3-.7,1.1,1.1,0,0,0,0-.8,1.42,1.42,0,0,0-.2-.6,2.09,2.09,0,0,0-.4-.6,2.18,2.18,0,0,0-.5-.4l-.6-.3h0A.31.31,0,0,1,196.73,126.4Zm-8.3,9.3h.2a.76.76,0,0,1,.4.1h0a.76.76,0,0,1,.4.2l.3.3c.1.1.2.2.2.3h0a.35.35,0,0,1,.1.2v.2h0a.37.37,0,0,0,.1.3v.3a4.33,4.33,0,0,1-.1.5,1.8,1.8,0,0,1-.6.9c-.1.1-.3.2-.4.3a.37.37,0,0,1-.3.1h-.9c-.2-.1-.4-.1-.6-.2s-.2-.1-.3-.2l-.2-.2c0-.1-.1-.1-.1-.2a1.08,1.08,0,0,1-.1-.6v-.6c0-.2.1-.4.1-.6a1.33,1.33,0,0,1,.3-.5c.2-.2.3-.4.5-.5s.3-.2.5-.2A1.34,1.34,0,0,0,188.43,135.7Zm-11.3,2.1a1.7,1.7,0,0,0-.7.1,2,2,0,0,0-.8.8,1,1,0,0,0-.2.7h0v.7c0,.1.1.2.1.3s.2.3.3.5a1.53,1.53,0,0,0,.7.5c.2,0,.3.1.4.1h.3a.35.35,0,0,0,.2-.1h0c.1,0,.1-.1.2-.1l.3-.3h0l.2-.2c.1-.1.1-.2.2-.3a2.35,2.35,0,0,0,.2-.8v-.5c0-.1-.1-.3-.1-.4s-.1-.4-.2-.5-.2-.2-.3-.2h-.1c-.1-.1-.2-.1-.4-.2S177.23,137.8,177.13,137.8Zm-10.4-5.9c.1,0,.3-.1.4-.1h.2a2.24,2.24,0,0,1,1,.3.35.35,0,0,0,.2-.1c.1,0,.1,0,.2.1s.2.1.3.2l.2.2h0l.1.1h0a.37.37,0,0,1,.1.3v.1c0,.1.1.2.1.3s.1.3.1.4v.4h0a.37.37,0,0,1-.1.3,4.88,4.88,0,0,0-.3.7,2,2,0,0,1-.8.8,1.55,1.55,0,0,1-.8.2h-.4a1.45,1.45,0,0,1-.7-.2c-.1-.1-.3-.1-.4-.2l-.2-.2a3.33,3.33,0,0,1-.3-.6c-.1-.1-.1-.3-.2-.5a1.9,1.9,0,0,1,.1-1.3,1.69,1.69,0,0,0,.2-.5c.1-.1.2-.3.3-.4s.2-.2.3-.2S166.63,131.9,166.73,131.9Zm2.8-15.9h-1a.6.6,0,0,0-.4.1,4.33,4.33,0,0,0-.5.1h-.2c-.2.1-.5.2-.7.3a2.19,2.19,0,0,0-.5.3c-.2.1-.3.3-.5.4h0c-.2.1-.3.3-.5.5s-.2.3-.3.4h0l-.2.2a2.18,2.18,0,0,1-.4.5l-.3.6c-.1.2-.2.5-.3.7s0,.1-.1.2h0c-.1.2-.1.3-.2.5s-.1.2-.1.3v.1a3.58,3.58,0,0,0-.4,1.1.9.9,0,0,0-.1.5h0c-.1.2-.1.4-.2.6s-.1.2-.1.3a.35.35,0,0,1-.1.2c0,.1,0,.2-.1.2h0c0,.1,0,.2-.1.2s-.1.2-.1.4h0c-.1.2-.1.4-.2.6v.1c-.1.3-.2.5-.3.8,0,.1-.1.1-.1.2s-.1.3-.2.4,0,.1-.1.2h0c0,.1-.1.1-.1.2v.1a.44.44,0,0,0,.1.5.76.76,0,0,0,.4.2h.5a4.87,4.87,0,0,1,1.2.1h-.1a.9.9,0,0,1,.5.1h.2c.1,0,.2,0,.2.1a.37.37,0,0,1,.3.1c.2,0,.4.1.7.1h1.2c.4,0,.8.1,1.2.1h2.4a2.2,2.2,0,0,0,.8-.1h.2c.1,0,.2,0,.2-.1s.3-.1.4-.1a2,2,0,0,0,.8-.4c.1-.1.3-.2.4-.3l.2-.2c.1,0,.1-.1.2-.2l.3-.3.1-.1h0c.1-.1.2-.2.2-.3s.1-.2.2-.3.2-.3.2-.5.2-.5.3-.8.1-.4.2-.6h0c0-.1.1-.2.1-.4v-.1h0v-.2c0-.1-.1-.1-.1-.2h-.1c-.1,0-.2,0-.2.1s-.1.1-.1.2v.1c0,.1-.1.1-.1.2a2.19,2.19,0,0,1-.3.5h0c-.1.1-.1.3-.2.4s-.1.2-.1.3l-.1.2c-.1.1-.2.3-.3.4l-.3.3-.1.1-.2.2a6.11,6.11,0,0,1-1.4.7,6.89,6.89,0,0,1-.8.3c-.3.1-.5.1-.8.2h-1.4c-.4,0-.7-.1-1.1-.1h-1.2c-.4,0-.8-.1-1.1-.1-.1,0-.3-.1-.4-.1a1.27,1.27,0,0,0-.6-.1h-.2c-.2,0-.3-.1-.5-.1a.6.6,0,0,1-.4-.1c.1-.1.1-.2.1-.4v-.2a.37.37,0,0,1,.1-.3c.1-.2.1-.4.2-.6s.1-.6.2-.8h0c0-.1.1-.3.1-.4s.1-.5.2-.7h0c.2-.6.3-1.3.5-1.9.1-.3.2-.7.3-1l.3-.9a8.34,8.34,0,0,1,.8-1.2,3,3,0,0,1,.8-.8,2,2,0,0,1,.8-.4,6.47,6.47,0,0,1,1.3-.4h2.1c.2,0,.3,0,.4-.2v-.2c0-.2-.1-.3-.3-.4a1.48,1.48,0,0,0-.7-.1h-.1C169.93,116,169.73,116,169.53,116Z"/><path class="cls-6" d="M87.13,136.8h0a54.72,54.72,0,0,1-16.3,23.8,42.59,42.59,0,0,0,14.8,49.3c8.2,5.9,18.2,7.8,27.6,7.3,12.5-.6,25-5.3,32.9-16.2l.6-.9c2.6-3.6,6-8.2,7.2-12,2.3-7,4.2-16.5,2.3-23.5A55,55,0,0,0,137,136.8c-7-5.1-25-17.4-25-17.4S92.33,133.1,87.13,136.8Z"/><path class="cls-2" d="M132.63,152.1a.1.1,0,0,0-.1.1h-.7a.75.75,0,0,0-.5.1h-.2c-.2,0-.5.1-.7.1a6.6,6.6,0,0,1-1.4.1h-1.4c-1.1.1-2.1.1-2.9.1h-1.4a3.75,3.75,0,0,1-1.1-.1h-.3a2,2,0,0,1-.8-.1,13197787778628.63,13197787778628.63,0,0,1-1.2-.2c-.3,0-.6-.1-.8-.1h-.4a3.4,3.4,0,0,1-1-.1c-.4,0-.9-.1-1.4-.1-1.1-.1-2.1-.1-3-.1h-7.2a7.08,7.08,0,0,0-1.4.1h-3c-.4,0-.9.1-1.3.1l-1.5.3c-.2.1-.5.2-.7.3a2.09,2.09,0,0,0-.6.4c-.2.2-.4.3-.6.5a2.18,2.18,0,0,0-.4.5l-.1.2a4.23,4.23,0,0,0-.5.7,1.38,1.38,0,0,0-.3.4,7.63,7.63,0,0,0-.8,1.1l.1-.1a7.46,7.46,0,0,0-.7,1.2l-.1.1c-.3.5-.5,1-.7,1.4l-.1.1-.3.6c-.1.1-.1.2-.2.4s-.1.2-.2.3c-.2.4-.5.9-.7,1.3l-.1.1c-.1.1-.1.2-.2.3s-.1.2-.2.4a2.09,2.09,0,0,1-.4.6h0c-.1.2-.3.5-.4.7a2.19,2.19,0,0,1-.3.5l-.1.2-.1.1a2.19,2.19,0,0,1-.3.5l-.3.6a3.92,3.92,0,0,0-.4.9h0v.3h0c0,.1,0,.1.1.2a.36.36,0,0,0,.3.2h.2a4.33,4.33,0,0,0,.5-.1c.1-.1.3-.1.4-.2a.76.76,0,0,1,.4-.2c.2-.2.5-.4.7-.6a6,6,0,0,0,.8-.8l.6-.6c.5-.5,1.1-.9,1.6-1.4l.3-.3c.3-.3.6-.5.9-.8l.7-.7.3-.3-.1.1.1-.1.1-.1c.1-.1.3-.2.4-.3l.1-.1.2-.2.3-.3c.1-.1.3-.2.4-.3l.1-.1h0c.2-.1.3-.3.5-.4s.4-.1.6-.2.6-.1.8-.1h.8a2.77,2.77,0,0,1,.9.1h.9v1.9a9.7,9.7,0,0,0-.1,1.7v1.9c0,.6-.1,1.2-.1,1.7v.4l-.1.4v.4a.9.9,0,0,1-.1.5.76.76,0,0,1-.1.4,10.28,10.28,0,0,0-.1,1.8v1.8c0,.6-.1,1.1-.1,1.8v2.8c0,.3-.1.6-.1.9-.1.6-.2,1.2-.3,1.7a9.83,9.83,0,0,1-.5,1.6c-.2.5-.4,1-.6,1.4a1.61,1.61,0,0,1-.4.7l-.1.2c-.1.1-.2.3-.3.4s-.3.4-.4.6-.2.3-.4.4l-.1.1a4.62,4.62,0,0,1-.7.7l-.3.3a2.65,2.65,0,0,0-.5.6,4.23,4.23,0,0,0-.5.7,9.13,9.13,0,0,0-.8,1.3,6.11,6.11,0,0,0-.7,1.4c-.2.5-.4,1.1-.6,1.7a2.49,2.49,0,0,0-.1.8v1c0,.3.1.6.1.9s.2.5.3.7.3.5.4.7.3.4.5.6.2.2.2.3a3.49,3.49,0,0,0,.9.6,1.09,1.09,0,0,0,.5.1H98c.1,0,.2.1.4.1s.4.1.7.1h1.1a.37.37,0,0,0,.3-.1c.1,0,.2-.1.4-.1s.2-.1.3-.1h.1a2.36,2.36,0,0,0,.9-.6,2.65,2.65,0,0,0,.6-.5,10.14,10.14,0,0,0,.9-1.3h0a4.35,4.35,0,0,0,.4-.7c.1-.2.3-.5.4-.7a16.19,16.19,0,0,0,.6-1.7,9.36,9.36,0,0,0,.4-1.6c.1-.4.2-.9.3-1.3l.1-.4c.1-.6.2-1.1.3-1.7,0-.3.1-.5.1-.9s.1-.6.1-.9v-.5a3.75,3.75,0,0,1,.1-1.1c0-.6.1-1.2.1-1.7l.1-.9.1-.9a2.77,2.77,0,0,1,.1-.9,1.27,1.27,0,0,1,.1-.6v-.8l.1-.5c.1-.8.2-1.7.3-2.5v-.1a8.6,8.6,0,0,0,.1-1.6v-1.8a2.77,2.77,0,0,1,.1-.9v-.9c0-.7.1-1.3.1-1.8v-3.5c0-.6.1-1.2.1-1.7a4.87,4.87,0,0,1,.1-1.2v-2.3h0c.1-.1.1-.1.2-.1l.9-.3h0c.2,0,.4-.1.6-.1a5.72,5.72,0,0,1,1.4-.1c.5,0,1-.1,1.4-.1,1-.1,2-.1,2.9-.1H118a.1.1,0,0,0,.1.1v.9a1.27,1.27,0,0,1-.1.6v.2c0,.3-.1.7-.1,1s-.1.4-.1.6c-.1.5-.2,1.1-.3,1.6s-.2,1.1-.3,1.6v.2c0,.2-.1.4-.1.7s-.1.5-.1.8v.1c0,.3-.1.6-.1.9v.2a4.33,4.33,0,0,1-.1.5,5.7,5.7,0,0,0-.1,1.3v.5c-.1,1.2-.1,2.5-.2,3.6v7.9a2.77,2.77,0,0,0,.1.9c.1.6.1,1.2.2,1.8s.2,1,.3,1.7v.1c.1.3.1.5.2.8s.1.4.1.6l.1.3c.1.3.1.6.2.8v.2c.1.2.1.4.2.6s.1.2.1.3.1.4.2.5l.3.9c.2.5.4.9.6,1.5s.5.9.8,1.5a4.7,4.7,0,0,0,.9,1.2l.5.5c.2.2.4.3.6.5h0c.2.1.4.3.6.4s.2.1.3.1a.6.6,0,0,0,.4.1,2.2,2.2,0,0,0,.8.1c.2,0,.4.1.7.1h.7c.3,0,.5-.1.7-.1a11.22,11.22,0,0,0,1.3-.5l.6-.3h.1l.6-.3a6.23,6.23,0,0,0,1.2-.9,12,12,0,0,0,1.2-1.1,1.76,1.76,0,0,0,.4-.5l.1-.1.2-.2c.1-.1.2-.3.3-.4s.3-.4.5-.6.3-.5.5-.7a6.11,6.11,0,0,0,.7-1.4,6.89,6.89,0,0,1,.3-.8c0-.1.1-.2.1-.3s.1-.3.1-.4a2.35,2.35,0,0,0,.2-.8c0-.2.1-.3.1-.5s.1-.2.1-.3a8.81,8.81,0,0,0,.2-1.7V183a1.48,1.48,0,0,0-.1-.7.92.92,0,0,0-.6-.4h-1.5a.9.9,0,0,0-.5.1c-.1.1-.2.1-.3.2s-.1.1-.1.2h0c0,.1-.1.2-.1.3h0c0,.1-.1.2-.1.3v.1l-.1.1-.3.6c-.1.2-.2.3-.3.5l-.1.2-.3.6a1.38,1.38,0,0,1-.3.4c-.1.1-.2.3-.4.4a6.78,6.78,0,0,1-1.8,1.3h-.1c-.2.1-.3.1-.5.2s-.4.1-.6.2H126c-.1,0-.2-.1-.4-.1s-.2-.1-.3-.1-.2-.1-.3-.2l-.3-.3a4.23,4.23,0,0,1-.5-.7c-.3-.4-.5-.9-.8-1.4l-.2-.4-.2-.4c-.1-.2-.2-.5-.3-.7a3.55,3.55,0,0,1-.2-1,2.77,2.77,0,0,1-.1-.9c-.1-.5-.1-1.2-.2-1.8s-.1-1.2-.1-1.8h0v-5.2a6.6,6.6,0,0,1,.1-1.4v-.3a3.4,3.4,0,0,1,.1-1,2.2,2.2,0,0,1,.1-.8v-.8a2.77,2.77,0,0,1,.1-.9V167c0-.5.1-1,.1-1.5a1.27,1.27,0,0,1,.1-.6,2.35,2.35,0,0,1,.2-.8l.3-1.5c0-.2.1-.3.1-.5v-.2c0-.1.1-.3.1-.4s.1-.2.1-.3l.1-.3.1-.3a2,2,0,0,0,.1-.8v-.5a.9.9,0,0,0,.5.1h1a4.48,4.48,0,0,1,1.1.1h1.8a32.18,32.18,0,0,0,3.3-.1,4.1,4.1,0,0,0,1.1-.1c.2,0,.3-.1.6-.1.1,0,.1,0,.2-.1h0a.92.92,0,0,0,.6-.4,1.09,1.09,0,0,0,.1-.5V153a1.91,1.91,0,0,0-.3-.8,1.38,1.38,0,0,0-.3-.4v.2c-.1-.1-.1-.1-.2-.1a.37.37,0,0,0-.3-.1C132.83,152,132.73,152,132.63,152.1Z"/></g></g></svg>